<svg width="80" height="80" viewBox="0 0 80 80" fill="none" xmlns="http://www.w3.org/2000/svg">
<g clip-path="url(#clip0)">
<path d="M45 80H35C32.6667 80 30 78 30 74V67C30 63.6667 28.3334 60.6667 25.6667 58.3334C19.6667 53.6667 16.6667 47 16.6667 39.6667C17 27 27.3334 17 39.6667 16.6667C46 16.6667 52 19 56.3334 23.3334C60.6667 27.6667 63.3334 33.6667 63.3334 40C63.3334 47 60.3334 53.6667 54.6667 58C51.6667 60.3333 50 64 50 67.3334V75C50 77.6667 47.6667 80 45 80ZM40 20C29.3334 20 20.3334 29 20 39.6667C20 46 22.6667 52 27.6667 55.6667C31.3334 58.6667 33.3334 62.6667 33.3334 67V74C33.3334 74.6667 33.3334 76.6667 35 76.6667H45C46 76.6667 46.6667 76 46.6667 75V67.3334C46.6667 63 49 58.3334 52.6667 55.3334C57.3334 51.6667 60 46 60 40C60 34.6667 58 29.6667 54 25.6667C50.3334 22 45.3334 20 40 20Z" fill="#FFFCF9"/>
<path d="M48.3333 70H31.6667C30.6667 70 30 69.3334 30 68.3334C30 67.3334 30.6667 66.6667 31.6667 66.6667H48.3333C49.3333 66.6667 50 67.3334 50 68.3334C50 69.3334 49.3333 70 48.3333 70Z" fill="#FFFCF9"/>
<path d="M40 10C39 10 38.3333 9.33333 38.3333 8.33333V1.66667C38.3333 0.666667 39 0 40 0C41 0 41.6666 0.666667 41.6666 1.66667V8.33333C41.6666 9.33333 41 10 40 10Z" fill="#FFFCF9"/>
<path d="M62.3334 19.3333C62 19.3333 61.3333 19.3333 61 19C60.3333 18.3333 60.3333 17.3333 61 16.6667L65.6667 12C66.3334 11.3333 67.3333 11.3333 68 12C68.6667 12.6667 68.6667 13.6667 68 14.3333L63.3334 19C63.3334 19 62.6667 19.3333 62.3334 19.3333Z" fill="#FFFCF9"/>
<path d="M78.3333 41.6667H71.6667C70.6667 41.6667 70 41 70 40C70 39 70.6667 38.3334 71.6667 38.3334H78.3333C79.3333 38.3334 80 39 80 40C80 41 79.3333 41.6667 78.3333 41.6667Z" fill="#FFFCF9"/>
<path d="M67 68.6666C66.6667 68.6666 66 68.6666 65.6667 68.3333L61 63.6666C60.3333 63 60.3333 62 61 61.3333C61.6667 60.6666 62.6667 60.6666 63.3334 61.3333L68 66C68.6667 66.6666 68.6667 67.6666 68 68.3333C68 68.6666 67.6667 68.6666 67 68.6666Z" fill="#FFFCF9"/>
<path d="M13 68.6666C12.6667 68.6666 12 68.6666 11.6667 68.3333C11 67.6666 11 66.6666 11.6667 66L16.3333 61.3333C17 60.6666 18 60.6666 18.6667 61.3333C19.3333 62 19.3333 63 18.6667 63.6666L14 68.3333C13.6667 68.6666 13.3333 68.6666 13 68.6666Z" fill="#FFFCF9"/>
<path d="M8.33333 41.6667H1.66666C0.666659 41.6667 -7.62939e-06 41 -7.62939e-06 40C-7.62939e-06 39 0.666659 38.3334 1.66666 38.3334H8.33333C9.33333 38.3334 9.99999 39 9.99999 40C9.99999 41 9.33333 41.6667 8.33333 41.6667Z" fill="#FFFCF9"/>
<path d="M17.6667 19.3334C17.3333 19.3334 16.6667 19.3333 16.3333 19L11.6667 14C11 13.3334 11 12.3334 11.6667 11.6667C12.3333 11 13.3333 11 14 11.6667L18.6667 16.3334C19.3333 17 19.3333 18 18.6667 18.6667C18.3333 19 18 19.3334 17.6667 19.3334Z" fill="#FFFCF9"/>
<path d="M53.3333 41.6667C52.3333 41.6667 51.6666 41 51.6666 40C51.6666 33.6667 46.3333 28.3333 40 28.3333C39 28.3333 38.3333 27.6667 38.3333 26.6667C38.3333 25.6667 39 25 40 25C48.3333 25 55 31.6667 55 40C55 41 54.3333 41.6667 53.3333 41.6667Z" fill="#FFFCF9"/>
</g>
<defs>
<clipPath id="clip0">
<rect width="80" height="80" fill="white"/>
</clipPath>
</defs>
</svg>
