<svg width="75" height="75" viewBox="0 0 75 75" fill="none" xmlns="http://www.w3.org/2000/svg">
<path d="M44.4276 8.26883C42.6957 5.72183 41.1675 3.3786 39.7412 1.23913C39.5374 0.93349 39.2318 0.627851 38.9261 0.424092C37.7036 -0.390946 36.0735 0.0165729 35.2585 1.23913C33.934 3.3786 32.4058 5.61996 30.572 8.26883C22.5235 20.0869 10.5017 37.9158 10.5017 48.1038C10.5017 55.541 13.5581 62.2651 18.4483 67.1553C23.3385 71.9436 30.0626 75 37.4998 75C44.937 75 51.6611 71.9436 56.5513 67.0534C61.4415 62.1632 64.4979 55.4391 64.4979 48.0019C64.4979 37.8139 52.4761 20.0869 44.4276 8.26883ZM52.8837 63.3857C48.9103 67.359 43.5107 69.7023 37.4998 69.7023C31.4889 69.7023 26.0893 67.2572 22.116 63.3857C18.1427 59.4124 15.7995 54.0128 15.7995 48.0019C15.7995 39.444 27.3119 22.4301 34.9528 11.1215C35.8697 9.79702 36.6848 8.47259 37.4998 7.35191C38.3149 8.47259 39.1299 9.79702 40.0468 11.1215C47.6878 22.532 59.2002 39.444 59.2002 48.0019C59.2002 54.0128 56.7551 59.4124 52.8837 63.3857Z" fill="#FFFCF9"/>
<path d="M53.2912 46.1681C51.8649 46.0662 50.6424 47.1869 50.5405 48.6132C50.4386 50.8545 49.7254 52.994 48.6048 54.8278C47.4841 56.6617 45.854 58.2917 43.9183 59.3105C42.6957 60.0237 42.1863 61.6538 42.8995 62.8763C43.7145 64.3026 45.3446 64.7102 46.5672 63.997C49.3179 62.4688 51.5593 60.2275 53.0875 57.6805C54.7175 55.1335 55.6345 52.0771 55.7363 48.9188C55.8382 47.4925 54.7175 46.2699 53.2912 46.1681Z" fill="#FFFCF9"/>
</svg>
