<svg width="75" height="57" viewBox="0 0 75 57" fill="none" xmlns="http://www.w3.org/2000/svg">
<path d="M57.4983 34.1354C58.1739 34.8173 58.3358 35.869 57.873 36.7101C56.2827 39.6007 52.3002 40.8816 49.2927 38.6535C42.2734 33.449 32.6497 33.5076 25.7095 38.6535C22.7061 40.8786 18.7207 39.6031 17.1293 36.7105C16.6666 35.8695 16.828 34.8174 17.5039 34.1356C28.5147 23.0241 46.4753 23.0109 57.4983 34.1354Z" fill="#FFFCF9"/>
<path d="M60.3506 30.8333C47.5159 18.2215 27.3064 18.4071 14.6519 30.8331C14.102 31.3731 13.3132 31.5964 12.5665 31.4063C10.2517 30.8172 8.51074 28.8357 8.29014 26.4401C8.2295 25.7824 8.4728 25.1316 8.94579 24.6705C24.8558 9.15828 50.165 9.17703 66.0564 24.6703C66.5292 25.1313 66.7727 25.7821 66.712 26.4396C66.4911 28.8321 64.7539 30.8163 62.4366 31.4062C61.6895 31.5964 60.9003 31.3735 60.3506 30.8333Z" fill="#FFFCF9"/>
<path d="M73.3154 21.7453C73.1245 21.934 72.9273 22.1065 72.7252 22.2637C71.8564 22.9391 70.6124 22.8433 69.8395 22.0599C52.05 4.02904 22.9692 4.02099 5.15462 22.0689C4.36202 22.8719 3.08516 22.9401 2.21097 22.2268C2.06874 22.1106 1.9309 21.9868 1.79819 21.8553C-0.819396 19.2729 -0.422436 15.4864 1.9769 13.4386C22.3815 -3.97782 52.6119 -3.98515 73.0253 13.4386C75.5448 15.5888 75.6664 19.4163 73.3154 21.7453Z" fill="#FFFCF9"/>
<path d="M37.5011 56.6264C40.7371 56.6264 43.3603 54.0032 43.3603 50.7673C43.3603 47.5313 40.7371 44.9081 37.5011 44.9081C34.2652 44.9081 31.642 47.5313 31.642 50.7673C31.642 54.0032 34.2652 56.6264 37.5011 56.6264Z" fill="#FFFCF9"/>
</svg>
