<svg width="100" height="75" viewBox="0 0 100 75" fill="none" xmlns="http://www.w3.org/2000/svg">
<path d="M98.3333 43.3333H86.6667C86.6627 42.0085 86.1347 40.739 85.1978 39.8022C84.261 38.8653 82.9915 38.3373 81.6667 38.3333H75C73.6751 38.3373 72.4057 38.8653 71.4688 39.8022C70.532 40.739 70.004 42.0085 70 43.3333H63.3333V36.6667C64.6582 36.6627 65.9277 36.1347 66.8645 35.1978C67.8013 34.261 68.3294 32.9915 68.3333 31.6667V25C68.3294 23.6751 67.8013 22.4057 66.8645 21.4688C65.9277 20.532 64.6582 20.004 63.3333 20V1.66667C63.3333 1.22464 63.1577 0.800716 62.8452 0.488156C62.5326 0.175595 62.1087 0 61.6667 0H38.3333C37.8913 0 37.4674 0.175595 37.1548 0.488156C36.8423 0.800716 36.6667 1.22464 36.6667 1.66667V20C35.3418 20.004 34.0723 20.532 33.1355 21.4688C32.1987 22.4057 31.6706 23.6751 31.6667 25V31.6667C31.6706 32.9915 32.1987 34.261 33.1355 35.1978C34.0723 36.1347 35.3418 36.6627 36.6667 36.6667V43.3333H30C29.996 42.0085 29.468 40.739 28.5312 39.8022C27.5943 38.8653 26.3249 38.3373 25 38.3333H18.3333C17.0085 38.3373 15.739 38.8653 14.8022 39.8022C13.8653 40.739 13.3373 42.0085 13.3333 43.3333H1.66667C1.22464 43.3333 0.800716 43.5089 0.488155 43.8215C0.175595 44.134 0 44.558 0 45V68.3333C0 68.7754 0.175595 69.1993 0.488155 69.5118C0.800716 69.8244 1.22464 70 1.66667 70H13.3333C13.3373 71.3249 13.8653 72.5943 14.8022 73.5312C15.739 74.468 17.0085 74.996 18.3333 75H25C26.3249 74.996 27.5943 74.468 28.5312 73.5312C29.468 72.5943 29.996 71.3249 30 70H70C70.004 71.3249 70.532 72.5943 71.4688 73.5312C72.4057 74.468 73.6751 74.996 75 75H81.6667C82.9915 74.996 84.261 74.468 85.1978 73.5312C86.1347 72.5943 86.6627 71.3249 86.6667 70H98.3333C98.7754 70 99.1993 69.8244 99.5118 69.5118C99.8244 69.1993 100 68.7754 100 68.3333V45C100 44.558 99.8244 44.134 99.5118 43.8215C99.1993 43.5089 98.7754 43.3333 98.3333 43.3333ZM13.3333 66.6667H3.33333V46.6667H13.3333V66.6667ZM26.6667 70C26.6667 70.442 26.4911 70.866 26.1785 71.1785C25.866 71.4911 25.442 71.6667 25 71.6667H18.3333C17.8913 71.6667 17.4674 71.4911 17.1548 71.1785C16.8423 70.866 16.6667 70.442 16.6667 70V43.3333C16.6667 42.8913 16.8423 42.4674 17.1548 42.1548C17.4674 41.8423 17.8913 41.6667 18.3333 41.6667H25C25.442 41.6667 25.866 41.8423 26.1785 42.1548C26.4911 42.4674 26.6667 42.8913 26.6667 43.3333V70ZM40 3.33333H60V20H40V3.33333ZM35 31.6667V25C35 24.558 35.1756 24.134 35.4882 23.8215C35.8007 23.5089 36.2246 23.3333 36.6667 23.3333H63.3333C63.7754 23.3333 64.1993 23.5089 64.5118 23.8215C64.8244 24.134 65 24.558 65 25V31.6667C65 32.1087 64.8244 32.5326 64.5118 32.8452C64.1993 33.1577 63.7754 33.3333 63.3333 33.3333H36.6667C36.2246 33.3333 35.8007 33.1577 35.4882 32.8452C35.1756 32.5326 35 32.1087 35 31.6667ZM70 66.6667H30V46.6667H38.3333C38.7754 46.6667 39.1993 46.4911 39.5118 46.1785C39.8244 45.866 40 45.442 40 45V36.6667H60V45C60 45.442 60.1756 45.866 60.4882 46.1785C60.8007 46.4911 61.2246 46.6667 61.6667 46.6667H70V66.6667ZM83.3333 70C83.3333 70.442 83.1577 70.866 82.8452 71.1785C82.5326 71.4911 82.1087 71.6667 81.6667 71.6667H75C74.558 71.6667 74.134 71.4911 73.8215 71.1785C73.5089 70.866 73.3333 70.442 73.3333 70V43.3333C73.3333 42.8913 73.5089 42.4674 73.8215 42.1548C74.134 41.8423 74.558 41.6667 75 41.6667H81.6667C82.1087 41.6667 82.5326 41.8423 82.8452 42.1548C83.1577 42.4674 83.3333 42.8913 83.3333 43.3333V70ZM96.6667 66.6667H86.6667V46.6667H96.6667V66.6667Z" fill="#FFFCF9"/>
<path d="M6.66667 50H10V53.3333H6.66667V50Z" fill="#FFFCF9"/>
<path d="M36.6667 60H40V63.3333H36.6667V60Z" fill="#FFFCF9"/>
<path d="M43.3333 60H50V63.3333H43.3333V60Z" fill="#FFFCF9"/>
<path d="M90 50H93.3333V53.3333H90V50Z" fill="#FFFCF9"/>
</svg>
