<svg width="23" height="30" viewBox="0 0 23 30" fill="none" xmlns="http://www.w3.org/2000/svg">
<path d="M20.3906 0H5.15625C4.90764 0 4.66916 0.0987891 4.49338 0.274629L0.274629 4.49338C0.0987889 4.66916 0 4.90758 0 5.15625V27.8906C0 29.0538 0.94623 30 2.10938 30H20.3906C21.5538 30 22.5 29.0538 22.5 27.8906V2.10938C22.5 0.94623 21.5538 0 20.3906 0ZM5.54455 1.875H6.09375V5.85938C6.09375 5.98863 5.98863 6.09375 5.85938 6.09375H1.875V5.54455L5.54455 1.875ZM20.625 27.8906C20.625 28.0199 20.5199 28.125 20.3906 28.125H2.10938C1.98012 28.125 1.875 28.0199 1.875 27.8906V7.96875H5.85938C7.02252 7.96875 7.96875 7.02252 7.96875 5.85938V1.875H20.3906C20.5199 1.875 20.625 1.98012 20.625 2.10938V27.8906Z" fill="#00A779"/>
<path d="M15 18.75C15 16.6822 13.3178 15 11.25 15C10.2161 15 9.37503 14.1589 9.37503 13.125C9.37503 12.0911 10.2161 11.25 11.25 11.25C12.1698 11.25 12.9473 11.9065 13.0987 12.8111C13.1842 13.3217 13.6677 13.6665 14.1781 13.5809C14.6887 13.4955 15.0334 13.0121 14.9479 12.5015C14.698 11.0081 13.5969 9.85313 12.1876 9.49313V8.90625C12.1876 8.38852 11.7679 7.96875 11.2501 7.96875C10.7323 7.96875 10.3126 8.38852 10.3126 8.90625V9.49365C8.69699 9.91102 7.50009 11.3808 7.50009 13.125C7.50009 15.1928 9.18232 16.875 11.2501 16.875C12.284 16.875 13.1251 17.7161 13.1251 18.75C13.1251 19.7839 12.284 20.625 11.2501 20.625C10.3303 20.625 9.55286 19.9685 9.40146 19.0639C9.31597 18.5533 8.83263 18.2084 8.32204 18.2941C7.8114 18.3795 7.46669 18.8629 7.55218 19.3735C7.80214 20.8669 8.90318 22.0219 10.3125 22.3819V22.9688C10.3125 23.4865 10.7322 23.9062 11.25 23.9062C11.7678 23.9062 12.1875 23.4865 12.1875 22.9688V22.3813C13.8031 21.964 15 20.4942 15 18.75Z" fill="#00A779"/>
</svg>
