<svg width="23.000000000000004" height="30" xmlns="http://www.w3.org/2000/svg">

 <g>
  <title>background</title>
  <rect fill="none" id="canvas_background" height="32" width="25" y="-1" x="-1"/>
 </g>
 <g>
  <title>Layer 1</title>
  <g stroke="null" id="svg_1">
   <g stroke="null" id="svg_2">
    <path stroke="null" id="svg_3" fill="#00A779" class="active-path" d="m6.257816,5.859375l0,-5.496211c0,-0.212871 -0.226486,-0.360879 -0.420744,-0.266895c-0.092929,0.044941 -0.178651,0.104941 -0.253233,0.178301l-5.242174,5.15625c-0.074641,0.073359 -0.135582,0.157676 -0.181272,0.249082c-0.095551,0.191016 0.054924,0.413848 0.271342,0.413848l5.5878,0c0.13159,0 0.238281,-0.104941 0.238281,-0.234375z"/>
    <path stroke="null" id="svg_4" fill="#00A779" class="active-path" d="m20.792935,0l-12.331023,0c-0.164473,0 -0.297851,0.131191 -0.297851,0.292969l0,5.566406c0,1.164961 -0.960152,2.109375 -2.144526,2.109375l-5.659165,0c-0.164473,0 -0.297851,0.131191 -0.297851,0.292969l0,19.628906c0,1.164961 0.960152,2.109375 2.144526,2.109375l18.585889,0c1.184374,0 2.144526,-0.944414 2.144526,-2.109375l0,-25.78125c0,-1.164961 -0.960152,-2.109375 -2.144526,-2.109375zm-8.339822,22.381348l0,0.587402c0,0.517734 -0.426701,0.9375 -0.953123,0.9375s-0.953123,-0.419766 -0.953123,-0.9375l0,-0.586816c-1.432901,-0.36 -2.552224,-1.515 -2.80635,-3.008379c-0.086913,-0.510645 0.263538,-0.993926 0.782692,-1.079414c0.519094,-0.085664 1.010489,0.259219 1.097401,0.769863c0.15387,0.904453 0.944306,1.560996 1.879379,1.560996c1.051115,0 1.906245,-0.841113 1.906245,-1.875s-0.85513,-1.875 -1.906245,-1.875c-2.102231,0 -3.81249,-1.682227 -3.81249,-3.75c0,-1.74416 1.21684,-3.213984 2.859368,-3.631348l0,-0.587402c0,-0.517734 0.426701,-0.9375 0.953123,-0.9375s0.953123,0.419766 0.953123,0.9375l0,0.586816c1.432901,0.36 2.552224,1.515 2.80635,3.008379c0.086913,0.510645 -0.263538,0.993926 -0.782692,1.079414c-0.518916,0.085547 -1.010429,-0.259219 -1.097401,-0.769863c-0.15387,-0.904453 -0.944306,-1.560996 -1.879379,-1.560996c-1.051115,0 -1.906245,0.841113 -1.906245,1.875s0.85513,1.875 1.906245,1.875c2.102231,0 3.81249,1.682227 3.81249,3.75c0,1.74416 -1.21684,3.213984 -2.859368,3.631348z"/>
   </g>
  </g>
 </g>
</svg>