<svg width="30" height="29" viewBox="0 0 30 29" fill="none" xmlns="http://www.w3.org/2000/svg">
<path d="M24.9609 28.123H5.03905C3.55288 28.123 2.34373 26.9139 2.34373 25.4277V11.2468C2.34373 10.7291 2.76344 10.3093 3.28123 10.3093C3.79903 10.3093 4.21873 10.7291 4.21873 11.2468V25.4277C4.21873 25.88 4.5867 26.248 5.03905 26.248H24.9609C25.4133 26.248 25.7812 25.88 25.7812 25.4277V11.2468C25.7812 10.7291 26.2009 10.3093 26.7187 10.3093C27.2365 10.3093 27.6562 10.7291 27.6562 11.2468V25.4277C27.6562 26.9139 26.4472 28.123 24.9609 28.123Z" fill="#00A779"/>
<path d="M29.0625 14.5278C28.8225 14.5278 28.5827 14.4363 28.3996 14.2532L16.7401 2.59377C15.7806 1.63424 14.2194 1.63424 13.2599 2.59377L1.60042 14.2532C1.23432 14.6194 0.640708 14.6194 0.274614 14.2532C-0.0915381 13.8871 -0.0915381 13.2935 0.274614 12.9274L11.9341 1.26791C13.6246 -0.422637 16.3754 -0.422637 18.0659 1.26791L29.7254 12.9274C30.0915 13.2935 30.0915 13.8871 29.7254 14.2532C29.5424 14.4363 29.3024 14.5278 29.0625 14.5278Z" fill="#00A779"/>
<path d="M18.75 28.1229H11.25C10.7322 28.1229 10.3125 27.7032 10.3125 27.1854V18.8651C10.3125 17.2497 11.6267 15.9354 13.2422 15.9354H16.7578C18.3732 15.9354 19.6875 17.2497 19.6875 18.8651V27.1854C19.6875 27.7032 19.2678 28.1229 18.75 28.1229ZM12.1875 26.2479H17.8125V18.8651C17.8125 18.2836 17.3393 17.8104 16.7578 17.8104H13.2422C12.6606 17.8104 12.1875 18.2836 12.1875 18.8651V26.2479Z" fill="#00A779"/>
</svg>
